<svg aria-hidden="true" style="position: absolute; width: 0; height: 0; overflow: hidden;" version="1.1" xmlns="http://www.w3.org/2000/svg" xmlns:xlink="http://www.w3.org/1999/xlink">
<defs>
<symbol id="icon-bookmark" viewBox="0 0 20 20">
<path d="M14 2v17l-4-4-4 4v-17c0-0.553 0.585-1.020 1-1h6c0.689-0.020 1 0.447 1 1z"></path>
</symbol>
<symbol id="icon-chevron-thin-right" viewBox="0 0 20 20">
<path d="M13.25 10l-7.141-7.42c-0.268-0.27-0.268-0.707 0-0.979 0.268-0.27 0.701-0.27 0.969 0l7.83 7.908c0.268 0.271 0.268 0.709 0 0.979l-7.83 7.908c-0.268 0.271-0.701 0.27-0.969 0s-0.268-0.707 0-0.979l7.141-7.417z"></path>
</symbol>
<symbol id="icon-chat" viewBox="0 0 20 20">
<path d="M5.8 12.2v-6.2h-3.8c-1.1 0-2 0.9-2 2v6c0 1.1 0.9 2 2 2h1v3l3-3h5c1.1 0 2-0.9 2-2v-1.82c-0.064 0.014-0.132 0.021-0.2 0.021l-7-0.001zM18 1h-9c-1.1 0-2 0.9-2 2v8h7l3 3v-3h1c1.1 0 2-0.899 2-2v-6c0-1.1-0.9-2-2-2z"></path>
</symbol>
<symbol id="icon-key" viewBox="0 0 20 20">
<path d="M17.691 4.725c-0.503-2.977-3.22-4.967-6.069-4.441s-5.256 2.816-4.753 5.795c0.107 0.641 0.408 1.644 0.763 2.365l-5.175 7.723c-0.191 0.285-0.299 0.799-0.242 1.141l0.333 1.971c0.058 0.342 0.372 0.572 0.7 0.514l1.516-0.281c0.328-0.059 0.744-0.348 0.924-0.639l2.047-3.311 0.018-0.022 1.386-0.256 2.39-3.879c0.785 0.139 1.912 0.092 2.578-0.031 2.848-0.526 4.087-3.67 3.584-6.649zM15.166 6.252c-0.784 1.17-1.584 0.346-2.703-0.475-1.119-0.818-2.135-1.322-1.352-2.492s2.326-1.455 3.447-0.635c1.12 0.819 1.391 2.432 0.608 3.602z"></path>
</symbol>
<symbol id="icon-home3" viewBox="0 0 32 32">
<path d="M32 19l-6-6v-9h-4v5l-6-6-16 16v1h4v10h10v-6h4v6h10v-10h4z"></path>
</symbol>
<symbol id="icon-search" viewBox="0 0 32 32">
<path d="M31.008 27.231l-7.58-6.447c-0.784-0.705-1.622-1.029-2.299-0.998 1.789-2.096 2.87-4.815 2.87-7.787 0-6.627-5.373-12-12-12s-12 5.373-12 12 5.373 12 12 12c2.972 0 5.691-1.081 7.787-2.87-0.031 0.677 0.293 1.515 0.998 2.299l6.447 7.58c1.104 1.226 2.907 1.33 4.007 0.23s0.997-2.903-0.23-4.007zM12 20c-4.418 0-8-3.582-8-8s3.582-8 8-8 8 3.582 8 8-3.582 8-8 8z"></path>
</symbol>
</defs>
</svg>
